# xmcd CD database file
#
# Track frame offsets:
#	150
#	10594
#	33729
#	61195
#	80124
#	94135
#
# Disc length: 1508 seconds
#
# Revision: 0
# Processed by: cddbd v1.5.2PL0 Copyright (c) Steve Scherf et al.
# Submitted via: CDex 2.05
#
DISCID=4305e206
DTITLE=Livio Bartolo - Appunti di un viaggio
DYEAR=1900
DGENRE=Blues
TTITLE0=Missing
TTITLE1=Dal'altra parte del muro
TTITLE2=Arte dell'incontro
TTITLE3=Da solo
TTITLE4=Tema per A
TTITLE5=C'era una volta un blues
EXTD=
EXTT0=
EXTT1=
EXTT2=
EXTT3=
EXTT4=
EXTT5=
PLAYORDER=
